<?xml version="1.0" encoding="UTF-8" standalone="no"?>
<!DOCTYPE svg PUBLIC "-//W3C//DTD SVG 1.1//EN"
 "http://www.w3.org/Graphics/SVG/1.1/DTD/svg11.dtd">
<!-- Generated by graphviz version 2.28.0 (20140111.2315)
 -->
<!-- Title: %3 Pages: 1 -->
<svg width="740pt" height="237pt"
 viewBox="0.00 0.00 740.00 237.16" xmlns="http://www.w3.org/2000/svg" xmlns:xlink="http://www.w3.org/1999/xlink">
<g id="graph0" class="graph" transform="scale(1 1) rotate(0) translate(4 233.157)">
<title>%3</title>
<polygon fill="white" stroke="none" points="-4,4 -4,-233.157 736,-233.157 736,4 -4,4"/>
<!-- z -->
<g id="node1" class="node"><title>z</title>
<polygon fill="salmon" stroke="salmon" points="97.4046,-124.759 0.595353,-124.759 0.595353,-83.5553 97.4046,-83.5553 97.4046,-124.759"/>
<text text-anchor="middle" x="49" y="-108.357" font-family="Helvetica,sans-Serif" font-size="14.00">Remote repo</text>
<text text-anchor="middle" x="49" y="-91.5572" font-family="Helvetica,sans-Serif" font-size="14.00">&quot;origin&quot;</text>
</g>
<!-- d1 -->
<g id="node5" class="node"><title>d1</title>
<ellipse fill="gold" stroke="gold" cx="161" cy="-169.157" rx="27.2622" ry="18"/>
<text text-anchor="middle" x="161" y="-164.957" font-family="Helvetica,sans-Serif" font-size="14.00">Pull</text>
</g>
<!-- z&#45;&gt;d1 -->
<g id="edge7" class="edge"><title>z&#45;&gt;d1</title>
<path fill="none" stroke="black" d="M84.2017,-124.367C99.3084,-133.294 116.87,-143.671 131.283,-152.188"/>
<polygon fill="black" stroke="black" points="129.853,-155.409 140.243,-157.483 133.414,-149.382 129.853,-155.409"/>
</g>
<!-- d2 -->
<g id="node11" class="node"><title>d2</title>
<ellipse fill="gold" stroke="gold" cx="161" cy="-39.1572" rx="27.2622" ry="18"/>
<text text-anchor="middle" x="161" y="-34.9572" font-family="Helvetica,sans-Serif" font-size="14.00">Pull</text>
</g>
<!-- z&#45;&gt;d2 -->
<g id="edge15" class="edge"><title>z&#45;&gt;d2</title>
<path fill="none" stroke="black" d="M84.2017,-83.9471C99.3084,-75.0204 116.87,-64.643 131.283,-56.1261"/>
<polygon fill="black" stroke="black" points="133.414,-58.9325 140.243,-50.8319 129.853,-52.906 133.414,-58.9325"/>
</g>
<!-- a1 -->
<g id="node2" class="node"><title>a1</title>
<ellipse fill="gold" stroke="gold" cx="252" cy="-169.157" rx="27.8442" ry="18"/>
<text text-anchor="middle" x="252" y="-164.957" font-family="Helvetica,sans-Serif" font-size="14.00">Edit</text>
</g>
<!-- b1 -->
<g id="node3" class="node"><title>b1</title>
<ellipse fill="gold" stroke="gold" cx="353" cy="-211.157" rx="36.0321" ry="18"/>
<text text-anchor="middle" x="353" y="-206.957" font-family="Helvetica,sans-Serif" font-size="14.00">Stage</text>
</g>
<!-- a1&#45;&gt;b1 -->
<g id="edge1" class="edge"><title>a1&#45;&gt;b1</title>
<path fill="none" stroke="black" d="M275.961,-178.898C287.728,-183.89 302.336,-190.087 315.593,-195.712"/>
<polygon fill="black" stroke="black" points="314.375,-198.997 324.948,-199.681 317.109,-192.553 314.375,-198.997"/>
</g>
<!-- c1 -->
<g id="node4" class="node"><title>c1</title>
<ellipse fill="gold" stroke="gold" cx="471" cy="-211.157" rx="44.0795" ry="18"/>
<text text-anchor="middle" x="471" y="-206.957" font-family="Helvetica,sans-Serif" font-size="14.00">Commit</text>
</g>
<!-- b1&#45;&gt;c1 -->
<g id="edge2" class="edge"><title>b1&#45;&gt;c1</title>
<path fill="none" stroke="black" d="M389.434,-211.157C397.954,-211.157 407.244,-211.157 416.387,-211.157"/>
<polygon fill="black" stroke="black" points="416.6,-214.657 426.6,-211.157 416.6,-207.657 416.6,-214.657"/>
</g>
<!-- y1 -->
<g id="node7" class="node"><title>y1</title>
<polygon fill="deepskyblue" stroke="deepskyblue" points="629.178,-192.759 552.822,-192.759 552.822,-151.555 629.178,-151.555 629.178,-192.759"/>
<text text-anchor="middle" x="591" y="-176.357" font-family="Helvetica,sans-Serif" font-size="14.00">Alice&#39;s</text>
<text text-anchor="middle" x="591" y="-159.557" font-family="Helvetica,sans-Serif" font-size="14.00">local repo</text>
</g>
<!-- c1&#45;&gt;y1 -->
<g id="edge3" class="edge"><title>c1&#45;&gt;y1</title>
<path fill="none" stroke="black" d="M505.814,-199.981C517.314,-196.181 530.385,-191.86 542.741,-187.777"/>
<polygon fill="black" stroke="black" points="544.056,-191.028 552.452,-184.567 541.859,-184.382 544.056,-191.028"/>
</g>
<!-- d1&#45;&gt;a1 -->
<g id="edge5" class="edge"><title>d1&#45;&gt;a1</title>
<path fill="none" stroke="black" d="M188.222,-169.157C196.241,-169.157 205.22,-169.157 213.823,-169.157"/>
<polygon fill="black" stroke="black" points="214.04,-172.657 224.04,-169.157 214.04,-165.657 214.04,-172.657"/>
</g>
<!-- e1 -->
<g id="node6" class="node"><title>e1</title>
<ellipse fill="gold" stroke="gold" cx="699" cy="-139.157" rx="33.0836" ry="18"/>
<text text-anchor="middle" x="699" y="-134.957" font-family="Helvetica,sans-Serif" font-size="14.00">Push</text>
</g>
<!-- e1&#45;&gt;z -->
<g id="edge6" class="edge"><title>e1&#45;&gt;z</title>
<path fill="none" stroke="black" d="M666.607,-135.527C623.007,-130.806 541.622,-123.157 472,-123.157 251,-123.157 251,-123.157 251,-123.157 202.633,-123.157 148.009,-117.637 107.926,-112.548"/>
<polygon fill="black" stroke="black" points="108.17,-109.05 97.8023,-111.232 107.268,-115.992 108.17,-109.05"/>
</g>
<!-- y1&#45;&gt;a1 -->
<g id="edge4" class="edge"><title>y1&#45;&gt;a1</title>
<path fill="none" stroke="black" d="M552.729,-171.825C487.762,-171.247 354.55,-170.061 289.867,-169.485"/>
<polygon fill="black" stroke="black" points="289.756,-165.984 279.726,-169.395 289.694,-172.984 289.756,-165.984"/>
</g>
<!-- y1&#45;&gt;e1 -->
<g id="edge8" class="edge"><title>y1&#45;&gt;e1</title>
<path fill="none" stroke="black" d="M629.372,-160.523C639.385,-157.405 650.217,-154.033 660.251,-150.909"/>
<polygon fill="black" stroke="black" points="661.451,-154.201 669.959,-147.887 659.371,-147.518 661.451,-154.201"/>
</g>
<!-- a2 -->
<g id="node8" class="node"><title>a2</title>
<ellipse fill="gold" stroke="gold" cx="252" cy="-39.1572" rx="27.8442" ry="18"/>
<text text-anchor="middle" x="252" y="-34.9572" font-family="Helvetica,sans-Serif" font-size="14.00">Edit</text>
</g>
<!-- b2 -->
<g id="node9" class="node"><title>b2</title>
<ellipse fill="gold" stroke="gold" cx="353" cy="-39.1572" rx="36.0321" ry="18"/>
<text text-anchor="middle" x="353" y="-34.9572" font-family="Helvetica,sans-Serif" font-size="14.00">Stage</text>
</g>
<!-- a2&#45;&gt;b2 -->
<g id="edge9" class="edge"><title>a2&#45;&gt;b2</title>
<path fill="none" stroke="black" d="M279.791,-39.1572C288.029,-39.1572 297.338,-39.1572 306.466,-39.1572"/>
<polygon fill="black" stroke="black" points="306.629,-42.6573 316.629,-39.1572 306.629,-35.6573 306.629,-42.6573"/>
</g>
<!-- c2 -->
<g id="node10" class="node"><title>c2</title>
<ellipse fill="gold" stroke="gold" cx="471" cy="-39.1572" rx="44.0795" ry="18"/>
<text text-anchor="middle" x="471" y="-34.9572" font-family="Helvetica,sans-Serif" font-size="14.00">Commit</text>
</g>
<!-- b2&#45;&gt;c2 -->
<g id="edge10" class="edge"><title>b2&#45;&gt;c2</title>
<path fill="none" stroke="black" d="M389.434,-39.1572C397.954,-39.1572 407.244,-39.1572 416.387,-39.1572"/>
<polygon fill="black" stroke="black" points="416.6,-42.6573 426.6,-39.1572 416.6,-35.6573 416.6,-42.6573"/>
</g>
<!-- y2 -->
<g id="node13" class="node"><title>y2</title>
<polygon fill="deepskyblue" stroke="deepskyblue" points="629.178,-56.7591 552.822,-56.7591 552.822,-15.5553 629.178,-15.5553 629.178,-56.7591"/>
<text text-anchor="middle" x="591" y="-40.3572" font-family="Helvetica,sans-Serif" font-size="14.00">Bob&#39;s</text>
<text text-anchor="middle" x="591" y="-23.5572" font-family="Helvetica,sans-Serif" font-size="14.00">local repo</text>
</g>
<!-- c2&#45;&gt;y2 -->
<g id="edge11" class="edge"><title>c2&#45;&gt;y2</title>
<path fill="none" stroke="black" d="M515.269,-38.0572C524.062,-37.8336 533.359,-37.5973 542.296,-37.3701"/>
<polygon fill="black" stroke="black" points="542.663,-40.862 552.57,-37.1088 542.485,-33.8642 542.663,-40.862"/>
</g>
<!-- d2&#45;&gt;a2 -->
<g id="edge13" class="edge"><title>d2&#45;&gt;a2</title>
<path fill="none" stroke="black" d="M188.222,-39.1572C196.241,-39.1572 205.22,-39.1572 213.823,-39.1572"/>
<polygon fill="black" stroke="black" points="214.04,-42.6573 224.04,-39.1572 214.04,-35.6573 214.04,-42.6573"/>
</g>
<!-- e2 -->
<g id="node12" class="node"><title>e2</title>
<ellipse fill="gold" stroke="gold" cx="699" cy="-69.1572" rx="33.0836" ry="18"/>
<text text-anchor="middle" x="699" y="-64.9572" font-family="Helvetica,sans-Serif" font-size="14.00">Push</text>
</g>
<!-- e2&#45;&gt;z -->
<g id="edge14" class="edge"><title>e2&#45;&gt;z</title>
<path fill="none" stroke="black" d="M666.607,-72.7879C623.007,-77.5086 541.622,-85.1572 472,-85.1572 251,-85.1572 251,-85.1572 251,-85.1572 202.633,-85.1572 148.009,-90.6775 107.926,-95.767"/>
<polygon fill="black" stroke="black" points="107.268,-92.3229 97.8023,-97.0823 108.17,-99.2646 107.268,-92.3229"/>
</g>
<!-- y2&#45;&gt;a2 -->
<g id="edge12" class="edge"><title>y2&#45;&gt;a2</title>
<path fill="none" stroke="black" d="M552.533,-21.4911C540.999,-17.664 528.14,-14.0766 516,-12.1572 428.202,1.7244 403.074,5.71528 316,-12.1572 304.781,-14.4599 293.094,-18.8473 282.876,-23.4265"/>
<polygon fill="black" stroke="black" points="281.138,-20.3765 273.592,-27.8138 284.129,-26.7053 281.138,-20.3765"/>
</g>
<!-- y2&#45;&gt;e2 -->
<g id="edge16" class="edge"><title>y2&#45;&gt;e2</title>
<path fill="none" stroke="black" d="M629.372,-47.7918C639.385,-50.9093 650.217,-54.2813 660.251,-57.4051"/>
<polygon fill="black" stroke="black" points="659.371,-60.7968 669.959,-60.4275 661.451,-54.1131 659.371,-60.7968"/>
</g>
</g>
</svg>
